ISO-10303-21;
HEADER;
FILE_DESCRIPTION(('STEP AP203'),'1');
FILE_NAME('07330-401750.stp','2018-11-29T08:21:42',('TraceParts'),('TraceParts S.A.'),'Spatial InterOp 3D',' ',' ');
FILE_SCHEMA(('CONFIG_CONTROL_DESIGN'));
ENDSEC;
DATA;
#1=DESIGN_CONTEXT('',#27,'design');
#2=APPLICATION_PROTOCOL_DEFINITION('INTERNATIONAL STANDARD','config_control_design',1994,#27);
#3=PRODUCT_CATEGORY_RELATIONSHIP('NONE','NONE',#28,#29);
#4=DATE_AND_TIME(#30,#31);
#5=DATE_TIME_ROLE('creation_date');
#6=DATE_TIME_ROLE('classification_date');
#7=PERSON_AND_ORGANIZATION_ROLE('creator');
#8=PERSON_AND_ORGANIZATION_ROLE('design_supplier');
#9=PERSON_AND_ORGANIZATION_ROLE('classification_officer');
#10=PERSON_AND_ORGANIZATION_ROLE('design_owner');
#11=APPROVAL_PERSON_ORGANIZATION(#32,#33,#34);
#12=APPROVAL_DATE_TIME(#4,#33);
#13=CC_DESIGN_APPROVAL(#33,(#35,#36,#37));
#14=CC_DESIGN_DATE_AND_TIME_ASSIGNMENT(#4,#5,(#37));
#15=CC_DESIGN_DATE_AND_TIME_ASSIGNMENT(#4,#6,(#35));
#16=CC_DESIGN_PERSON_AND_ORGANIZATION_ASSIGNMENT(#32,#10,(#38));
#17=CC_DESIGN_PERSON_AND_ORGANIZATION_ASSIGNMENT(#32,#7,(#37));
#18=CC_DESIGN_PERSON_AND_ORGANIZATION_ASSIGNMENT(#32,#7,(#36));
#19=CC_DESIGN_PERSON_AND_ORGANIZATION_ASSIGNMENT(#32,#8,(#36));
#20=CC_DESIGN_SECURITY_CLASSIFICATION(#35,(#36));
#21=CC_DESIGN_PERSON_AND_ORGANIZATION_ASSIGNMENT(#32,#9,(#35));
#22=SHAPE_DEFINITION_REPRESENTATION(#39,#40);
#23= (GEOMETRIC_REPRESENTATION_CONTEXT(3)GLOBAL_UNCERTAINTY_ASSIGNED_CONTEXT((#43))GLOBAL_UNIT_ASSIGNED_CONTEXT((#45,#46,#47))REPRESENTATION_CONTEXT('NONE','WORKSPACE'));
#27=APPLICATION_CONTEXT('CONFIGURATION CONTROLLED 3D DESIGNS OF MECHANICAL PARTS AND ASSEMBLIES');
#28=PRODUCT_CATEGORY('part','NONE');
#29=PRODUCT_RELATED_PRODUCT_CATEGORY('detail',' ',(#38));
#30=CALENDAR_DATE(2018,29,10);
#31=LOCAL_TIME(9,21,42.0,#49);
#32=PERSON_AND_ORGANIZATION(#50,#51);
#33=APPROVAL(#52,'SOLID MODEL');
#34=APPROVAL_ROLE('APPROVED');
#35=SECURITY_CLASSIFICATION('','',#53);
#36=PRODUCT_DEFINITION_FORMATION_WITH_SPECIFIED_SOURCE(' ','NONE',#38,.NOT_KNOWN.);
#37=PRODUCT_DEFINITION('','NONE',#36,#1);
#38=PRODUCT('1','','PART--DESC',(#54));
#39=PRODUCT_DEFINITION_SHAPE('NONE','NONE',#37);
#40=ADVANCED_BREP_SHAPE_REPRESENTATION('1',(#55,#56),#23);
#43=UNCERTAINTY_MEASURE_WITH_UNIT(LENGTH_MEASURE(1.0E-06),#45,'','');
#45= (CONVERSION_BASED_UNIT('MILLIMETRE',#59)LENGTH_UNIT()NAMED_UNIT(#62));
#46= (NAMED_UNIT(#64)PLANE_ANGLE_UNIT()SI_UNIT($,.RADIAN.));
#47= (NAMED_UNIT(#64)SOLID_ANGLE_UNIT()SI_UNIT($,.STERADIAN.));
#49=COORDINATED_UNIVERSAL_TIME_OFFSET(1,0,.AHEAD.);
#50=PERSON('','UNSPECIFIED',$,$,$,$);
#51=ORGANIZATION('UNSPECIFIED','UNSPECIFIED','UNSPECIFIED');
#52=APPROVAL_STATUS('approved');
#53=SECURITY_CLASSIFICATION_LEVEL('unclassified');
#54=MECHANICAL_CONTEXT('',#27,'mechanical');
#55=MANIFOLD_SOLID_BREP('1',#70);
#56=AXIS2_PLACEMENT_3D('',#71,#72,#73);
#59=LENGTH_MEASURE_WITH_UNIT(LENGTH_MEASURE(1.0),#74);
#62=DIMENSIONAL_EXPONENTS(1.0,0.0,0.0,0.0,0.0,0.0,0.0);
#64=DIMENSIONAL_EXPONENTS(0.0,0.0,0.0,0.0,0.0,0.0,0.0);
#70=CLOSED_SHELL('',(#75,#76,#77,#78,#79,#80,#81,#82,#83,#84,#85,#86,#87,#88,#89,#90,#91,#92,#93,#94,#95,#96,#97,#98));
#71=CARTESIAN_POINT('',(0.0,0.0,0.0));
#72=DIRECTION('',(0.0,0.0,1.0));
#73=DIRECTION('',(1.0,0.0,0.0));
#74= (NAMED_UNIT(#62)LENGTH_UNIT()SI_UNIT(.MILLI.,.METRE.));
#75=ADVANCED_FACE('',(#100),#101,.F.);
#76=ADVANCED_FACE('',(#102),#103,.F.);
#77=ADVANCED_FACE('',(#104),#105,.T.);
#78=ADVANCED_FACE('',(#106),#107,.T.);
#79=ADVANCED_FACE('',(#108),#109,.F.);
#80=ADVANCED_FACE('',(#110),#111,.F.);
#81=ADVANCED_FACE('',(#112,#113,#114),#115,.T.);
#82=ADVANCED_FACE('',(#116),#117,.F.);
#83=ADVANCED_FACE('',(#118),#119,.T.);
#84=ADVANCED_FACE('',(#120),#121,.T.);
#85=ADVANCED_FACE('',(#122),#123,.F.);
#86=ADVANCED_FACE('',(#124),#125,.F.);
#87=ADVANCED_FACE('',(#126),#127,.T.);
#88=ADVANCED_FACE('',(#128),#129,.T.);
#89=ADVANCED_FACE('',(#130),#131,.F.);
#90=ADVANCED_FACE('',(#132),#133,.T.);
#91=ADVANCED_FACE('',(#134),#135,.F.);
#92=ADVANCED_FACE('',(#136),#137,.T.);
#93=ADVANCED_FACE('',(#138),#139,.F.);
#94=ADVANCED_FACE('',(#140),#141,.T.);
#95=ADVANCED_FACE('',(#142),#143,.T.);
#96=ADVANCED_FACE('',(#144),#145,.F.);
#97=ADVANCED_FACE('',(#146),#147,.F.);
#98=ADVANCED_FACE('',(#148,#149,#150),#151,.F.);
#100=FACE_OUTER_BOUND('',#152,.T.);
#101=CYLINDRICAL_SURFACE('',#153,1.25);
#102=FACE_OUTER_BOUND('',#154,.T.);
#103=CYLINDRICAL_SURFACE('',#155,18.25);
#104=FACE_OUTER_BOUND('',#156,.T.);
#105=CYLINDRICAL_SURFACE('',#157,21.5);
#106=FACE_OUTER_BOUND('',#158,.T.);
#107=CYLINDRICAL_SURFACE('',#159,21.5);
#108=FACE_OUTER_BOUND('',#160,.T.);
#109=CYLINDRICAL_SURFACE('',#161,1.25);
#110=FACE_OUTER_BOUND('',#162,.T.);
#111=CYLINDRICAL_SURFACE('',#163,1.24999999999999);
#112=FACE_OUTER_BOUND('',#164,.T.);
#113=FACE_BOUND('',#165,.T.);
#114=FACE_BOUND('',#166,.T.);
#115=PLANE('',#167);
#116=FACE_OUTER_BOUND('',#168,.T.);
#117=CYLINDRICAL_SURFACE('',#169,1.25);
#118=FACE_OUTER_BOUND('',#170,.T.);
#119=CYLINDRICAL_SURFACE('',#171,21.5);
#120=FACE_OUTER_BOUND('',#172,.T.);
#121=CYLINDRICAL_SURFACE('',#173,21.5);
#122=FACE_OUTER_BOUND('',#174,.T.);
#123=CYLINDRICAL_SURFACE('',#175,1.25000000000001);
#124=FACE_OUTER_BOUND('',#176,.T.);
#125=PLANE('',#177);
#126=FACE_OUTER_BOUND('',#178,.T.);
#127=CYLINDRICAL_SURFACE('',#179,1.25);
#128=FACE_OUTER_BOUND('',#180,.T.);
#129=CYLINDRICAL_SURFACE('',#181,26.2999999999982);
#130=FACE_OUTER_BOUND('',#182,.T.);
#131=PLANE('',#183);
#132=FACE_OUTER_BOUND('',#184,.T.);
#133=CYLINDRICAL_SURFACE('',#185,1.24999999999999);
#134=FACE_OUTER_BOUND('',#186,.T.);
#135=CYLINDRICAL_SURFACE('',#187,18.25);
#136=FACE_OUTER_BOUND('',#188,.T.);
#137=CYLINDRICAL_SURFACE('',#189,1.24999999999999);
#138=FACE_OUTER_BOUND('',#190,.T.);
#139=PLANE('',#191);
#140=FACE_OUTER_BOUND('',#192,.T.);
#141=CYLINDRICAL_SURFACE('',#193,26.2999999999993);
#142=FACE_OUTER_BOUND('',#194,.T.);
#143=CYLINDRICAL_SURFACE('',#195,1.25);
#144=FACE_OUTER_BOUND('',#196,.T.);
#145=PLANE('',#197);
#146=FACE_OUTER_BOUND('',#198,.T.);
#147=CYLINDRICAL_SURFACE('',#199,1.25);
#148=FACE_OUTER_BOUND('',#200,.T.);
#149=FACE_BOUND('',#201,.T.);
#150=FACE_BOUND('',#202,.T.);
#151=PLANE('',#203);
#152=EDGE_LOOP('',(#204,#205,#206,#207));
#153=AXIS2_PLACEMENT_3D('',#208,#209,#210);
#154=EDGE_LOOP('',(#211,#212,#213,#214));
#155=AXIS2_PLACEMENT_3D('',#215,#216,#217);
#156=EDGE_LOOP('',(#218,#219,#220,#221));
#157=AXIS2_PLACEMENT_3D('',#222,#223,#224);
#158=EDGE_LOOP('',(#225,#226,#227,#228));
#159=AXIS2_PLACEMENT_3D('',#229,#230,#231);
#160=EDGE_LOOP('',(#232,#233,#234,#235));
#161=AXIS2_PLACEMENT_3D('',#236,#237,#238);
#162=EDGE_LOOP('',(#239,#240,#241,#242));
#163=AXIS2_PLACEMENT_3D('',#243,#244,#245);
#164=EDGE_LOOP('',(#246,#247,#248,#249,#250,#251,#252,#253,#254,#255,#256,#257,#258,#259,#260,#261,#262,#263));
#165=EDGE_LOOP('',(#264,#265,#266));
#166=EDGE_LOOP('',(#267,#268,#269));
#167=AXIS2_PLACEMENT_3D('',#270,#271,#272);
#168=EDGE_LOOP('',(#273,#274,#275,#276,#277,#278));
#169=AXIS2_PLACEMENT_3D('',#279,#280,#281);
#170=EDGE_LOOP('',(#282,#283,#284,#285));
#171=AXIS2_PLACEMENT_3D('',#286,#287,#288);
#172=EDGE_LOOP('',(#289,#290,#291,#292));
#173=AXIS2_PLACEMENT_3D('',#293,#294,#295);
#174=EDGE_LOOP('',(#296,#297,#298,#299));
#175=AXIS2_PLACEMENT_3D('',#300,#301,#302);
#176=EDGE_LOOP('',(#303,#304,#305,#306));
#177=AXIS2_PLACEMENT_3D('',#307,#308,#309);
#178=EDGE_LOOP('',(#310,#311,#312,#313));
#179=AXIS2_PLACEMENT_3D('',#314,#315,#316);
#180=EDGE_LOOP('',(#317,#318,#319,#320));
#181=AXIS2_PLACEMENT_3D('',#321,#322,#323);
#182=EDGE_LOOP('',(#324,#325,#326,#327));
#183=AXIS2_PLACEMENT_3D('',#328,#329,#330);
#184=EDGE_LOOP('',(#331,#332,#333,#334));
#185=AXIS2_PLACEMENT_3D('',#335,#336,#337);
#186=EDGE_LOOP('',(#338,#339,#340,#341));
#187=AXIS2_PLACEMENT_3D('',#342,#343,#344);
#188=EDGE_LOOP('',(#345,#346,#347,#348));
#189=AXIS2_PLACEMENT_3D('',#349,#350,#351);
#190=EDGE_LOOP('',(#352,#353,#354,#355));
#191=AXIS2_PLACEMENT_3D('',#356,#357,#358);
#192=EDGE_LOOP('',(#359,#360,#361,#362));
#193=AXIS2_PLACEMENT_3D('',#363,#364,#365);
#194=EDGE_LOOP('',(#366,#367,#368,#369));
#195=AXIS2_PLACEMENT_3D('',#370,#371,#372);
#196=EDGE_LOOP('',(#373,#374,#375,#376));
#197=AXIS2_PLACEMENT_3D('',#377,#378,#379);
#198=EDGE_LOOP('',(#380,#381,#382,#383,#384,#385));
#199=AXIS2_PLACEMENT_3D('',#386,#387,#388);
#200=EDGE_LOOP('',(#389,#390,#391,#392,#393,#394,#395,#396,#397,#398,#399,#400,#401,#402,#403,#404,#405,#406));
#201=EDGE_LOOP('',(#407,#408,#409));
#202=EDGE_LOOP('',(#410,#411,#412));
#203=AXIS2_PLACEMENT_3D('',#413,#414,#415);
#204=ORIENTED_EDGE('',*,*,#416,.F.);
#205=ORIENTED_EDGE('',*,*,#417,.T.);
#206=ORIENTED_EDGE('',*,*,#418,.F.);
#207=ORIENTED_EDGE('',*,*,#419,.F.);
#208=CARTESIAN_POINT('',(3.5,1.75,23.3));
#209=DIRECTION('',(0.0,-1.0,0.0));
#210=DIRECTION('',(0.0,0.0,-1.0));
#211=ORIENTED_EDGE('',*,*,#420,.F.);
#212=ORIENTED_EDGE('',*,*,#421,.T.);
#213=ORIENTED_EDGE('',*,*,#422,.T.);
#214=ORIENTED_EDGE('',*,*,#423,.F.);
#215=CARTESIAN_POINT('',(3.29597460435593E-14,1.75,-1.73472347597681E-15));
#216=DIRECTION('',(0.0,-1.0,0.0));
#217=DIRECTION('',(0.0,0.0,-1.0));
#218=ORIENTED_EDGE('',*,*,#424,.F.);
#219=ORIENTED_EDGE('',*,*,#425,.T.);
#220=ORIENTED_EDGE('',*,*,#426,.F.);
#221=ORIENTED_EDGE('',*,*,#427,.F.);
#222=CARTESIAN_POINT('',(-1.06733270791907,1.75,-1.17650934546024));
#223=DIRECTION('',(0.0,-1.0,0.0));
#224=DIRECTION('',(0.0,0.0,-1.0));
#225=ORIENTED_EDGE('',*,*,#428,.F.);
#226=ORIENTED_EDGE('',*,*,#429,.T.);
#227=ORIENTED_EDGE('',*,*,#430,.F.);
#228=ORIENTED_EDGE('',*,*,#431,.F.);
#229=CARTESIAN_POINT('',(1.06733270791909,1.75,-1.17650934546025));
#230=DIRECTION('',(0.0,-1.0,0.0));
#231=DIRECTION('',(0.0,0.0,-1.0));
#232=ORIENTED_EDGE('',*,*,#432,.F.);
#233=ORIENTED_EDGE('',*,*,#433,.T.);
#234=ORIENTED_EDGE('',*,*,#434,.F.);
#235=ORIENTED_EDGE('',*,*,#435,.F.);
#236=CARTESIAN_POINT('',(-3.5,1.75,23.3));
#237=DIRECTION('',(0.0,-1.0,0.0));
#238=DIRECTION('',(0.0,0.0,-1.0));
#239=ORIENTED_EDGE('',*,*,#436,.F.);
#240=ORIENTED_EDGE('',*,*,#437,.F.);
#241=ORIENTED_EDGE('',*,*,#438,.T.);
#242=ORIENTED_EDGE('',*,*,#439,.T.);
#243=CARTESIAN_POINT('',(7.24999999999999,1.75,20.7172597488604));
#244=DIRECTION('',(0.0,-1.0,0.0));
#245=DIRECTION('',(0.0,0.0,-1.0));
#246=ORIENTED_EDGE('',*,*,#440,.T.);
#247=ORIENTED_EDGE('',*,*,#431,.T.);
#248=ORIENTED_EDGE('',*,*,#441,.T.);
#249=ORIENTED_EDGE('',*,*,#427,.T.);
#250=ORIENTED_EDGE('',*,*,#442,.F.);
#251=ORIENTED_EDGE('',*,*,#443,.T.);
#252=ORIENTED_EDGE('',*,*,#444,.T.);
#253=ORIENTED_EDGE('',*,*,#445,.T.);
#254=ORIENTED_EDGE('',*,*,#446,.T.);
#255=ORIENTED_EDGE('',*,*,#447,.T.);
#256=ORIENTED_EDGE('',*,*,#421,.F.);
#257=ORIENTED_EDGE('',*,*,#448,.F.);
#258=ORIENTED_EDGE('',*,*,#449,.T.);
#259=ORIENTED_EDGE('',*,*,#450,.T.);
#260=ORIENTED_EDGE('',*,*,#451,.T.);
#261=ORIENTED_EDGE('',*,*,#452,.T.);
#262=ORIENTED_EDGE('',*,*,#453,.T.);
#263=ORIENTED_EDGE('',*,*,#438,.F.);
#264=ORIENTED_EDGE('',*,*,#454,.F.);
#265=ORIENTED_EDGE('',*,*,#455,.F.);
#266=ORIENTED_EDGE('',*,*,#433,.F.);
#267=ORIENTED_EDGE('',*,*,#456,.F.);
#268=ORIENTED_EDGE('',*,*,#457,.F.);
#269=ORIENTED_EDGE('',*,*,#417,.F.);
#270=CARTESIAN_POINT('',(1.06733270791909,1.75,-1.17650934546025));
#271=DIRECTION('',(0.0,1.0,0.0));
#272=DIRECTION('',(1.0,0.0,-0.0));
#273=ORIENTED_EDGE('',*,*,#432,.T.);
#274=ORIENTED_EDGE('',*,*,#458,.F.);
#275=ORIENTED_EDGE('',*,*,#459,.F.);
#276=ORIENTED_EDGE('',*,*,#434,.T.);
#277=ORIENTED_EDGE('',*,*,#455,.T.);
#278=ORIENTED_EDGE('',*,*,#454,.T.);
#279=CARTESIAN_POINT('',(-3.5,1.75,23.3));
#280=DIRECTION('',(0.0,-1.0,0.0));
#281=DIRECTION('',(0.0,0.0,-1.0));
#282=ORIENTED_EDGE('',*,*,#428,.T.);
#283=ORIENTED_EDGE('',*,*,#440,.F.);
#284=ORIENTED_EDGE('',*,*,#437,.T.);
#285=ORIENTED_EDGE('',*,*,#460,.T.);
#286=CARTESIAN_POINT('',(1.06733270791909,1.75,-1.17650934546025));
#287=DIRECTION('',(0.0,-1.0,0.0));
#288=DIRECTION('',(0.0,0.0,-1.0));
#289=ORIENTED_EDGE('',*,*,#424,.T.);
#290=ORIENTED_EDGE('',*,*,#441,.F.);
#291=ORIENTED_EDGE('',*,*,#430,.T.);
#292=ORIENTED_EDGE('',*,*,#461,.T.);
#293=CARTESIAN_POINT('',(-1.06733270791907,1.75,-1.17650934546024));
#294=DIRECTION('',(0.0,-1.0,0.0));
#295=DIRECTION('',(0.0,0.0,-1.0));
#296=ORIENTED_EDGE('',*,*,#462,.F.);
#297=ORIENTED_EDGE('',*,*,#463,.F.);
#298=ORIENTED_EDGE('',*,*,#442,.T.);
#299=ORIENTED_EDGE('',*,*,#426,.T.);
#300=CARTESIAN_POINT('',(-7.25,1.75,20.7172597488604));
#301=DIRECTION('',(0.0,-1.0,0.0));
#302=DIRECTION('',(0.0,0.0,-1.0));
#303=ORIENTED_EDGE('',*,*,#464,.T.);
#304=ORIENTED_EDGE('',*,*,#465,.F.);
#305=ORIENTED_EDGE('',*,*,#443,.F.);
#306=ORIENTED_EDGE('',*,*,#463,.T.);
#307=CARTESIAN_POINT('',(-6.0,1.75,20.7172597488604));
#308=DIRECTION('',(1.0,0.0,0.0));
#309=DIRECTION('',(0.0,1.0,-0.0));
#310=ORIENTED_EDGE('',*,*,#466,.T.);
#311=ORIENTED_EDGE('',*,*,#467,.F.);
#312=ORIENTED_EDGE('',*,*,#444,.F.);
#313=ORIENTED_EDGE('',*,*,#465,.T.);
#314=CARTESIAN_POINT('',(-4.75,1.75,24.5955280488141));
#315=DIRECTION('',(0.0,-1.0,0.0));
#316=DIRECTION('',(0.0,0.0,-1.0));
#317=ORIENTED_EDGE('',*,*,#468,.T.);
#318=ORIENTED_EDGE('',*,*,#469,.F.);
#319=ORIENTED_EDGE('',*,*,#445,.F.);
#320=ORIENTED_EDGE('',*,*,#467,.T.);
#321=CARTESIAN_POINT('',(-2.02528965820292E-13,1.75,1.82839854367955E-12));
#322=DIRECTION('',(0.0,-1.0,0.0));
#323=DIRECTION('',(0.0,0.0,-1.0));
#324=ORIENTED_EDGE('',*,*,#470,.T.);
#325=ORIENTED_EDGE('',*,*,#471,.F.);
#326=ORIENTED_EDGE('',*,*,#446,.F.);
#327=ORIENTED_EDGE('',*,*,#469,.T.);
#328=CARTESIAN_POINT('',(-0.5,1.75,26.2952467187513));
#329=DIRECTION('',(-1.0,0.0,0.0));
#330=DIRECTION('',(0.0,0.0,1.0));
#331=ORIENTED_EDGE('',*,*,#472,.T.);
#332=ORIENTED_EDGE('',*,*,#422,.F.);
#333=ORIENTED_EDGE('',*,*,#447,.F.);
#334=ORIENTED_EDGE('',*,*,#471,.T.);
#335=CARTESIAN_POINT('',(-1.74999999999999,1.75,19.4213156094019));
#336=DIRECTION('',(0.0,-1.0,0.0));
#337=DIRECTION('',(0.0,0.0,-1.0));
#338=ORIENTED_EDGE('',*,*,#420,.T.);
#339=ORIENTED_EDGE('',*,*,#473,.F.);
#340=ORIENTED_EDGE('',*,*,#474,.F.);
#341=ORIENTED_EDGE('',*,*,#448,.T.);
#342=CARTESIAN_POINT('',(3.29597460435593E-14,1.75,-1.73472347597681E-15));
#343=DIRECTION('',(0.0,-1.0,0.0));
#344=DIRECTION('',(0.0,0.0,-1.0));
#345=ORIENTED_EDGE('',*,*,#475,.T.);
#346=ORIENTED_EDGE('',*,*,#476,.F.);
#347=ORIENTED_EDGE('',*,*,#449,.F.);
#348=ORIENTED_EDGE('',*,*,#474,.T.);
#349=CARTESIAN_POINT('',(1.74999999999999,1.75,19.4213156094019));
#350=DIRECTION('',(0.0,-1.0,0.0));
#351=DIRECTION('',(0.0,0.0,-1.0));
#352=ORIENTED_EDGE('',*,*,#477,.T.);
#353=ORIENTED_EDGE('',*,*,#478,.F.);
#354=ORIENTED_EDGE('',*,*,#450,.F.);
#355=ORIENTED_EDGE('',*,*,#476,.T.);
#356=CARTESIAN_POINT('',(0.5,1.75,19.421315609402));
#357=DIRECTION('',(1.0,0.0,0.0));
#358=DIRECTION('',(0.0,1.0,-0.0));
#359=ORIENTED_EDGE('',*,*,#479,.T.);
#360=ORIENTED_EDGE('',*,*,#480,.F.);
#361=ORIENTED_EDGE('',*,*,#451,.F.);
#362=ORIENTED_EDGE('',*,*,#478,.T.);
#363=CARTESIAN_POINT('',(8.52182907573606E-14,1.75,7.07767178198537E-13));
#364=DIRECTION('',(0.0,-1.0,0.0));
#365=DIRECTION('',(0.0,0.0,-1.0));
#366=ORIENTED_EDGE('',*,*,#481,.T.);
#367=ORIENTED_EDGE('',*,*,#482,.F.);
#368=ORIENTED_EDGE('',*,*,#452,.F.);
#369=ORIENTED_EDGE('',*,*,#480,.T.);
#370=CARTESIAN_POINT('',(4.75,1.75,24.5955280488141));
#371=DIRECTION('',(0.0,-1.0,0.0));
#372=DIRECTION('',(0.0,0.0,-1.0));
#373=ORIENTED_EDGE('',*,*,#483,.T.);
#374=ORIENTED_EDGE('',*,*,#439,.F.);
#375=ORIENTED_EDGE('',*,*,#453,.F.);
#376=ORIENTED_EDGE('',*,*,#482,.T.);
#377=CARTESIAN_POINT('',(6.0,1.75,24.5955280488141));
#378=DIRECTION('',(-1.0,0.0,0.0));
#379=DIRECTION('',(0.0,0.0,1.0));
#380=ORIENTED_EDGE('',*,*,#416,.T.);
#381=ORIENTED_EDGE('',*,*,#484,.F.);
#382=ORIENTED_EDGE('',*,*,#485,.F.);
#383=ORIENTED_EDGE('',*,*,#418,.T.);
#384=ORIENTED_EDGE('',*,*,#457,.T.);
#385=ORIENTED_EDGE('',*,*,#456,.T.);
#386=CARTESIAN_POINT('',(3.5,1.75,23.3));
#387=DIRECTION('',(0.0,-1.0,0.0));
#388=DIRECTION('',(0.0,0.0,-1.0));
#389=ORIENTED_EDGE('',*,*,#460,.F.);
#390=ORIENTED_EDGE('',*,*,#436,.T.);
#391=ORIENTED_EDGE('',*,*,#483,.F.);
#392=ORIENTED_EDGE('',*,*,#481,.F.);
#393=ORIENTED_EDGE('',*,*,#479,.F.);
#394=ORIENTED_EDGE('',*,*,#477,.F.);
#395=ORIENTED_EDGE('',*,*,#475,.F.);
#396=ORIENTED_EDGE('',*,*,#473,.T.);
#397=ORIENTED_EDGE('',*,*,#423,.T.);
#398=ORIENTED_EDGE('',*,*,#472,.F.);
#399=ORIENTED_EDGE('',*,*,#470,.F.);
#400=ORIENTED_EDGE('',*,*,#468,.F.);
#401=ORIENTED_EDGE('',*,*,#466,.F.);
#402=ORIENTED_EDGE('',*,*,#464,.F.);
#403=ORIENTED_EDGE('',*,*,#462,.T.);
#404=ORIENTED_EDGE('',*,*,#425,.F.);
#405=ORIENTED_EDGE('',*,*,#461,.F.);
#406=ORIENTED_EDGE('',*,*,#429,.F.);
#407=ORIENTED_EDGE('',*,*,#458,.T.);
#408=ORIENTED_EDGE('',*,*,#435,.T.);
#409=ORIENTED_EDGE('',*,*,#459,.T.);
#410=ORIENTED_EDGE('',*,*,#484,.T.);
#411=ORIENTED_EDGE('',*,*,#419,.T.);
#412=ORIENTED_EDGE('',*,*,#485,.T.);
#413=CARTESIAN_POINT('',(1.06733270791909,0.0,-1.17650934546025));
#414=DIRECTION('',(0.0,1.0,0.0));
#415=DIRECTION('',(1.0,0.0,-0.0));
#416=EDGE_CURVE('',#486,#487,#488,.T.);
#417=EDGE_CURVE('',#486,#489,#490,.T.);
#418=EDGE_CURVE('',#491,#489,#492,.T.);
#419=EDGE_CURVE('',#487,#491,#493,.T.);
#420=EDGE_CURVE('',#494,#495,#496,.T.);
#421=EDGE_CURVE('',#494,#497,#498,.T.);
#422=EDGE_CURVE('',#497,#499,#500,.T.);
#423=EDGE_CURVE('',#495,#499,#501,.T.);
#424=EDGE_CURVE('',#502,#503,#504,.T.);
#425=EDGE_CURVE('',#502,#505,#506,.T.);
#426=EDGE_CURVE('',#507,#505,#508,.T.);
#427=EDGE_CURVE('',#503,#507,#509,.T.);
#428=EDGE_CURVE('',#510,#511,#512,.T.);
#429=EDGE_CURVE('',#510,#513,#514,.T.);
#430=EDGE_CURVE('',#515,#513,#516,.T.);
#431=EDGE_CURVE('',#511,#515,#517,.T.);
#432=EDGE_CURVE('',#518,#519,#520,.T.);
#433=EDGE_CURVE('',#518,#521,#522,.T.);
#434=EDGE_CURVE('',#523,#521,#524,.T.);
#435=EDGE_CURVE('',#519,#523,#525,.T.);
#436=EDGE_CURVE('',#526,#527,#528,.T.);
#437=EDGE_CURVE('',#529,#526,#530,.T.);
#438=EDGE_CURVE('',#529,#531,#532,.T.);
#439=EDGE_CURVE('',#531,#527,#533,.T.);
#440=EDGE_CURVE('',#529,#511,#534,.T.);
#441=EDGE_CURVE('',#515,#503,#535,.T.);
#442=EDGE_CURVE('',#536,#507,#537,.T.);
#443=EDGE_CURVE('',#536,#538,#539,.T.);
#444=EDGE_CURVE('',#538,#540,#541,.T.);
#445=EDGE_CURVE('',#540,#542,#543,.T.);
#446=EDGE_CURVE('',#542,#544,#545,.T.);
#447=EDGE_CURVE('',#544,#497,#546,.T.);
#448=EDGE_CURVE('',#547,#494,#548,.T.);
#449=EDGE_CURVE('',#547,#549,#550,.T.);
#450=EDGE_CURVE('',#549,#551,#552,.T.);
#451=EDGE_CURVE('',#551,#553,#554,.T.);
#452=EDGE_CURVE('',#553,#555,#556,.T.);
#453=EDGE_CURVE('',#555,#531,#557,.T.);
#454=EDGE_CURVE('',#558,#518,#559,.T.);
#455=EDGE_CURVE('',#521,#558,#560,.T.);
#456=EDGE_CURVE('',#561,#486,#562,.T.);
#457=EDGE_CURVE('',#489,#561,#563,.T.);
#458=EDGE_CURVE('',#564,#519,#565,.T.);
#459=EDGE_CURVE('',#523,#564,#566,.T.);
#460=EDGE_CURVE('',#526,#510,#567,.T.);
#461=EDGE_CURVE('',#513,#502,#568,.T.);
#462=EDGE_CURVE('',#569,#505,#570,.T.);
#463=EDGE_CURVE('',#536,#569,#571,.T.);
#464=EDGE_CURVE('',#569,#572,#573,.T.);
#465=EDGE_CURVE('',#538,#572,#574,.T.);
#466=EDGE_CURVE('',#572,#575,#576,.T.);
#467=EDGE_CURVE('',#540,#575,#577,.T.);
#468=EDGE_CURVE('',#575,#578,#579,.T.);
#469=EDGE_CURVE('',#542,#578,#580,.T.);
#470=EDGE_CURVE('',#578,#581,#582,.T.);
#471=EDGE_CURVE('',#544,#581,#583,.T.);
#472=EDGE_CURVE('',#581,#499,#584,.T.);
#473=EDGE_CURVE('',#585,#495,#586,.T.);
#474=EDGE_CURVE('',#547,#585,#587,.T.);
#475=EDGE_CURVE('',#585,#588,#589,.T.);
#476=EDGE_CURVE('',#549,#588,#590,.T.);
#477=EDGE_CURVE('',#588,#591,#592,.T.);
#478=EDGE_CURVE('',#551,#591,#593,.T.);
#479=EDGE_CURVE('',#591,#594,#595,.T.);
#480=EDGE_CURVE('',#553,#594,#596,.T.);
#481=EDGE_CURVE('',#594,#597,#598,.T.);
#482=EDGE_CURVE('',#555,#597,#599,.T.);
#483=EDGE_CURVE('',#597,#527,#600,.T.);
#484=EDGE_CURVE('',#601,#487,#602,.T.);
#485=EDGE_CURVE('',#491,#601,#603,.T.);
#486=VERTEX_POINT('',#604);
#487=VERTEX_POINT('',#605);
#488=LINE('',#606,#607);
#489=VERTEX_POINT('',#608);
#490=CIRCLE('',#609,1.25);
#491=VERTEX_POINT('',#610);
#492=LINE('',#611,#612);
#493=CIRCLE('',#613,1.25);
#494=VERTEX_POINT('',#614);
#495=VERTEX_POINT('',#615);
#496=LINE('',#616,#617);
#497=VERTEX_POINT('',#618);
#498=CIRCLE('',#619,18.25);
#499=VERTEX_POINT('',#620);
#500=LINE('',#621,#622);
#501=CIRCLE('',#623,18.25);
#502=VERTEX_POINT('',#624);
#503=VERTEX_POINT('',#625);
#504=LINE('',#626,#627);
#505=VERTEX_POINT('',#628);
#506=CIRCLE('',#629,21.5);
#507=VERTEX_POINT('',#630);
#508=LINE('',#631,#632);
#509=CIRCLE('',#633,21.5);
#510=VERTEX_POINT('',#634);
#511=VERTEX_POINT('',#635);
#512=LINE('',#636,#637);
#513=VERTEX_POINT('',#638);
#514=CIRCLE('',#639,21.5);
#515=VERTEX_POINT('',#640);
#516=LINE('',#641,#642);
#517=CIRCLE('',#643,21.5);
#518=VERTEX_POINT('',#644);
#519=VERTEX_POINT('',#645);
#520=LINE('',#646,#647);
#521=VERTEX_POINT('',#648);
#522=CIRCLE('',#649,1.25);
#523=VERTEX_POINT('',#650);
#524=LINE('',#651,#652);
#525=CIRCLE('',#653,1.25);
#526=VERTEX_POINT('',#654);
#527=VERTEX_POINT('',#655);
#528=CIRCLE('',#656,1.24999999999999);
#529=VERTEX_POINT('',#657);
#530=LINE('',#658,#659);
#531=VERTEX_POINT('',#660);
#532=CIRCLE('',#661,1.24999999999999);
#533=LINE('',#662,#663);
#534=CIRCLE('',#664,21.5);
#535=CIRCLE('',#665,21.5);
#536=VERTEX_POINT('',#666);
#537=CIRCLE('',#667,1.25000000000001);
#538=VERTEX_POINT('',#668);
#539=LINE('',#669,#670);
#540=VERTEX_POINT('',#671);
#541=CIRCLE('',#672,1.25);
#542=VERTEX_POINT('',#673);
#543=CIRCLE('',#674,26.2999999999982);
#544=VERTEX_POINT('',#675);
#545=LINE('',#676,#677);
#546=CIRCLE('',#678,1.24999999999999);
#547=VERTEX_POINT('',#679);
#548=CIRCLE('',#680,18.25);
#549=VERTEX_POINT('',#681);
#550=CIRCLE('',#682,1.24999999999999);
#551=VERTEX_POINT('',#683);
#552=LINE('',#684,#685);
#553=VERTEX_POINT('',#686);
#554=CIRCLE('',#687,26.2999999999993);
#555=VERTEX_POINT('',#688);
#556=CIRCLE('',#689,1.25);
#557=LINE('',#690,#691);
#558=VERTEX_POINT('',#692);
#559=CIRCLE('',#693,1.25);
#560=CIRCLE('',#694,1.25);
#561=VERTEX_POINT('',#695);
#562=CIRCLE('',#696,1.25);
#563=CIRCLE('',#697,1.25);
#564=VERTEX_POINT('',#698);
#565=CIRCLE('',#699,1.25);
#566=CIRCLE('',#700,1.25);
#567=CIRCLE('',#701,21.5);
#568=CIRCLE('',#702,21.5);
#569=VERTEX_POINT('',#703);
#570=CIRCLE('',#704,1.25000000000001);
#571=LINE('',#705,#706);
#572=VERTEX_POINT('',#707);
#573=LINE('',#708,#709);
#574=LINE('',#710,#711);
#575=VERTEX_POINT('',#712);
#576=CIRCLE('',#713,1.25);
#577=LINE('',#714,#715);
#578=VERTEX_POINT('',#716);
#579=CIRCLE('',#717,26.2999999999982);
#580=LINE('',#718,#719);
#581=VERTEX_POINT('',#720);
#582=LINE('',#721,#722);
#583=LINE('',#723,#724);
#584=CIRCLE('',#725,1.24999999999999);
#585=VERTEX_POINT('',#726);
#586=CIRCLE('',#727,18.25);
#587=LINE('',#728,#729);
#588=VERTEX_POINT('',#730);
#589=CIRCLE('',#731,1.24999999999999);
#590=LINE('',#732,#733);
#591=VERTEX_POINT('',#734);
#592=LINE('',#735,#736);
#593=LINE('',#737,#738);
#594=VERTEX_POINT('',#739);
#595=CIRCLE('',#740,26.2999999999993);
#596=LINE('',#741,#742);
#597=VERTEX_POINT('',#743);
#598=CIRCLE('',#744,1.25);
#599=LINE('',#745,#746);
#600=LINE('',#747,#748);
#601=VERTEX_POINT('',#749);
#602=CIRCLE('',#750,1.25);
#603=CIRCLE('',#751,1.25);
#604=CARTESIAN_POINT('',(3.5,1.75,22.05));
#605=CARTESIAN_POINT('',(3.5,0.0,22.05));
#606=CARTESIAN_POINT('',(3.5,1.75,22.05));
#607=VECTOR('',#752,1.0);
#608=CARTESIAN_POINT('',(3.5,1.75,24.55));
#609=AXIS2_PLACEMENT_3D('',#753,#754,#755);
#610=CARTESIAN_POINT('',(3.5,0.0,24.55));
#611=CARTESIAN_POINT('',(3.5,1.75,24.55));
#612=VECTOR('',#756,1.0);
#613=AXIS2_PLACEMENT_3D('',#757,#758,#759);
#614=CARTESIAN_POINT('',(3.07248394478335E-14,1.75,-18.25));
#615=CARTESIAN_POINT('',(3.07248394478335E-14,0.0,-18.25));
#616=CARTESIAN_POINT('',(3.07248394478335E-14,1.75,-18.25));
#617=VECTOR('',#760,1.0);
#618=CARTESIAN_POINT('',(-1.63782051282051,1.75,18.1763594805941));
#619=AXIS2_PLACEMENT_3D('',#761,#762,#763);
#620=CARTESIAN_POINT('',(-1.63782051282051,0.0,18.1763594805941));
#621=CARTESIAN_POINT('',(-1.63782051282051,1.75,18.1763594805941));
#622=VECTOR('',#764,1000.0);
#623=AXIS2_PLACEMENT_3D('',#765,#766,#767);
#624=CARTESIAN_POINT('',(-1.06733270791907,0.0,-22.6765093454602));
#625=CARTESIAN_POINT('',(-1.06733270791907,1.75,-22.6765093454602));
#626=CARTESIAN_POINT('',(-1.06733270791907,1.75,-22.6765093454602));
#627=VECTOR('',#768,1.0);
#628=CARTESIAN_POINT('',(-6.91029260851865,0.0,19.5143055152451));
#629=AXIS2_PLACEMENT_3D('',#769,#770,#771);
#630=CARTESIAN_POINT('',(-6.91029260851865,1.75,19.5143055152451));
#631=CARTESIAN_POINT('',(-6.91029260851865,1.75,19.5143055152451));
#632=VECTOR('',#772,1000.0);
#633=AXIS2_PLACEMENT_3D('',#773,#774,#775);
#634=CARTESIAN_POINT('',(1.06733270791909,0.0,-22.6765093454602));
#635=CARTESIAN_POINT('',(1.06733270791909,1.75,-22.6765093454602));
#636=CARTESIAN_POINT('',(1.06733270791909,1.75,-22.6765093454602));
#637=VECTOR('',#776,1.0);
#638=CARTESIAN_POINT('',(-3.40439482160448E-14,0.0,-22.65));
#639=AXIS2_PLACEMENT_3D('',#777,#778,#779);
#640=CARTESIAN_POINT('',(-3.40439482160448E-14,1.75,-22.65));
#641=CARTESIAN_POINT('',(-3.40439482160448E-14,1.75,-22.65));
#642=VECTOR('',#780,1000.0);
#643=AXIS2_PLACEMENT_3D('',#781,#782,#783);
#644=CARTESIAN_POINT('',(-3.5,1.75,22.05));
#645=CARTESIAN_POINT('',(-3.5,0.0,22.05));
#646=CARTESIAN_POINT('',(-3.5,1.75,22.05));
#647=VECTOR('',#784,1.0);
#648=CARTESIAN_POINT('',(-3.5,1.75,24.55));
#649=AXIS2_PLACEMENT_3D('',#785,#786,#787);
#650=CARTESIAN_POINT('',(-3.5,0.0,24.55));
#651=CARTESIAN_POINT('',(-3.5,1.75,24.55));
#652=VECTOR('',#788,1.0);
#653=AXIS2_PLACEMENT_3D('',#789,#790,#791);
#654=CARTESIAN_POINT('',(6.91029282453716,0.0,19.5143054542428));
#655=CARTESIAN_POINT('',(6.0,0.0,20.7172597488605));
#656=AXIS2_PLACEMENT_3D('',#792,#793,#794);
#657=CARTESIAN_POINT('',(6.91029282453716,1.75,19.5143054542428));
#658=CARTESIAN_POINT('',(6.91029282453716,1.75,19.5143054542428));
#659=VECTOR('',#795,1000.0);
#660=CARTESIAN_POINT('',(6.0,1.75,20.7172597488605));
#661=AXIS2_PLACEMENT_3D('',#796,#797,#798);
#662=CARTESIAN_POINT('',(6.0,1.75,20.7172597488605));
#663=VECTOR('',#799,1000.0);
#664=AXIS2_PLACEMENT_3D('',#800,#801,#802);
#665=AXIS2_PLACEMENT_3D('',#803,#804,#805);
#666=CARTESIAN_POINT('',(-6.0,1.75,20.7172597488604));
#667=AXIS2_PLACEMENT_3D('',#806,#807,#808);
#668=CARTESIAN_POINT('',(-6.0,1.75,24.5955280488141));
#669=CARTESIAN_POINT('',(-6.0,1.75,20.7172597488604));
#670=VECTOR('',#809,1000.0);
#671=CARTESIAN_POINT('',(-4.98702594810379,1.75,25.8228498077369));
#672=AXIS2_PLACEMENT_3D('',#810,#811,#812);
#673=CARTESIAN_POINT('',(-0.49999999999999,1.75,26.2952467187513));
#674=AXIS2_PLACEMENT_3D('',#813,#814,#815);
#675=CARTESIAN_POINT('',(-0.5,1.75,19.421315609402));
#676=CARTESIAN_POINT('',(-0.5,1.75,26.2952467187513));
#677=VECTOR('',#816,1000.0);
#678=AXIS2_PLACEMENT_3D('',#817,#818,#819);
#679=CARTESIAN_POINT('',(1.6378205128205,1.75,18.1763594805941));
#680=AXIS2_PLACEMENT_3D('',#820,#821,#822);
#681=CARTESIAN_POINT('',(0.500000000000001,1.75,19.4213156094019));
#682=AXIS2_PLACEMENT_3D('',#823,#824,#825);
#683=CARTESIAN_POINT('',(0.5,1.75,26.2952467187513));
#684=CARTESIAN_POINT('',(0.5,1.75,19.421315609402));
#685=VECTOR('',#826,1000.0);
#686=CARTESIAN_POINT('',(4.98702594810378,1.75,25.8228498077369));
#687=AXIS2_PLACEMENT_3D('',#827,#828,#829);
#688=CARTESIAN_POINT('',(6.0,1.75,24.5955280301876));
#689=AXIS2_PLACEMENT_3D('',#830,#831,#832);
#690=CARTESIAN_POINT('',(6.0,1.75,24.5955280488141));
#691=VECTOR('',#833,1000.0);
#692=CARTESIAN_POINT('',(-2.25,1.75,23.3));
#693=AXIS2_PLACEMENT_3D('',#834,#835,#836);
#694=AXIS2_PLACEMENT_3D('',#837,#838,#839);
#695=CARTESIAN_POINT('',(4.75,1.75,23.3));
#696=AXIS2_PLACEMENT_3D('',#840,#841,#842);
#697=AXIS2_PLACEMENT_3D('',#843,#844,#845);
#698=CARTESIAN_POINT('',(-2.25,0.0,23.3));
#699=AXIS2_PLACEMENT_3D('',#846,#847,#848);
#700=AXIS2_PLACEMENT_3D('',#849,#850,#851);
#701=AXIS2_PLACEMENT_3D('',#852,#853,#854);
#702=AXIS2_PLACEMENT_3D('',#855,#856,#857);
#703=CARTESIAN_POINT('',(-6.0,0.0,20.7172597488604));
#704=AXIS2_PLACEMENT_3D('',#858,#859,#860);
#705=CARTESIAN_POINT('',(-6.0,1.75,20.7172597488604));
#706=VECTOR('',#861,1000.0);
#707=CARTESIAN_POINT('',(-6.0,0.0,24.5955280488141));
#708=CARTESIAN_POINT('',(-6.0,0.0,20.7172597488604));
#709=VECTOR('',#862,1000.0);
#710=CARTESIAN_POINT('',(-6.0,1.75,24.5955280488141));
#711=VECTOR('',#863,1000.0);
#712=CARTESIAN_POINT('',(-4.98702594810379,0.0,25.8228498077369));
#713=AXIS2_PLACEMENT_3D('',#864,#865,#866);
#714=CARTESIAN_POINT('',(-4.98702594810379,1.75,25.8228498077369));
#715=VECTOR('',#867,1000.0);
#716=CARTESIAN_POINT('',(-0.49999999999999,0.0,26.2952467187513));
#717=AXIS2_PLACEMENT_3D('',#868,#869,#870);
#718=CARTESIAN_POINT('',(-0.49999999999999,1.75,26.2952467187513));
#719=VECTOR('',#871,1000.0);
#720=CARTESIAN_POINT('',(-0.5,0.0,19.421315609402));
#721=CARTESIAN_POINT('',(-0.5,0.0,26.2952467187513));
#722=VECTOR('',#872,1000.0);
#723=CARTESIAN_POINT('',(-0.5,1.75,19.421315609402));
#724=VECTOR('',#873,1000.0);
#725=AXIS2_PLACEMENT_3D('',#874,#875,#876);
#726=CARTESIAN_POINT('',(1.6378205128205,0.0,18.1763594805941));
#727=AXIS2_PLACEMENT_3D('',#877,#878,#879);
#728=CARTESIAN_POINT('',(1.6378205128205,1.75,18.1763594805941));
#729=VECTOR('',#880,1000.0);
#730=CARTESIAN_POINT('',(0.500000000000001,0.0,19.4213156094019));
#731=AXIS2_PLACEMENT_3D('',#881,#882,#883);
#732=CARTESIAN_POINT('',(0.500000000000001,1.75,19.4213156094019));
#733=VECTOR('',#884,1000.0);
#734=CARTESIAN_POINT('',(0.5,0.0,26.2952467187513));
#735=CARTESIAN_POINT('',(0.5,0.0,19.421315609402));
#736=VECTOR('',#885,1000.0);
#737=CARTESIAN_POINT('',(0.5,1.75,26.2952467187513));
#738=VECTOR('',#886,1000.0);
#739=CARTESIAN_POINT('',(4.98702594810378,0.0,25.8228498077369));
#740=AXIS2_PLACEMENT_3D('',#887,#888,#889);
#741=CARTESIAN_POINT('',(4.98702594810378,1.75,25.8228498077369));
#742=VECTOR('',#890,1000.0);
#743=CARTESIAN_POINT('',(6.0,0.0,24.5955280301876));
#744=AXIS2_PLACEMENT_3D('',#891,#892,#893);
#745=CARTESIAN_POINT('',(6.0,1.75,24.5955280301876));
#746=VECTOR('',#894,1000.0);
#747=CARTESIAN_POINT('',(6.0,0.0,24.5955280488141));
#748=VECTOR('',#895,1000.0);
#749=CARTESIAN_POINT('',(4.75,0.0,23.3));
#750=AXIS2_PLACEMENT_3D('',#896,#897,#898);
#751=AXIS2_PLACEMENT_3D('',#899,#900,#901);
#752=DIRECTION('',(-0.0,-1.0,-0.0));
#753=CARTESIAN_POINT('',(3.5,1.75,23.3));
#754=DIRECTION('',(-0.0,1.0,0.0));
#755=DIRECTION('',(1.0,0.0,0.0));
#756=DIRECTION('',(0.0,1.0,0.0));
#757=CARTESIAN_POINT('',(3.5,0.0,23.3));
#758=DIRECTION('',(-0.0,1.0,0.0));
#759=DIRECTION('',(1.0,0.0,0.0));
#760=DIRECTION('',(0.0,-1.0,-0.0));
#761=CARTESIAN_POINT('',(-3.29597460435593E-14,1.75,0.0));
#762=DIRECTION('',(-0.0,1.0,0.0));
#763=DIRECTION('',(1.0,0.0,0.0));
#764=DIRECTION('',(-0.0,-1.0,-0.0));
#765=CARTESIAN_POINT('',(3.29597460435593E-14,0.0,-1.73472347597681E-15));
#766=DIRECTION('',(-0.0,1.0,0.0));
#767=DIRECTION('',(1.0,0.0,0.0));
#768=DIRECTION('',(-0.0,1.0,-0.0));
#769=CARTESIAN_POINT('',(-1.06733270791907,0.0,-1.17650934546024));
#770=DIRECTION('',(-0.0,1.0,0.0));
#771=DIRECTION('',(1.0,0.0,0.0));
#772=DIRECTION('',(-0.0,-1.0,-0.0));
#773=CARTESIAN_POINT('',(-1.06733270791907,1.75,-1.17650934546024));
#774=DIRECTION('',(-0.0,1.0,0.0));
#775=DIRECTION('',(1.0,0.0,0.0));
#776=DIRECTION('',(-0.0,1.0,-0.0));
#777=CARTESIAN_POINT('',(1.06733270791909,0.0,-1.17650934546025));
#778=DIRECTION('',(-0.0,1.0,0.0));
#779=DIRECTION('',(1.0,0.0,0.0));
#780=DIRECTION('',(-0.0,-1.0,-0.0));
#781=CARTESIAN_POINT('',(1.06733270791909,1.75,-1.17650934546025));
#782=DIRECTION('',(-0.0,1.0,0.0));
#783=DIRECTION('',(1.0,0.0,0.0));
#784=DIRECTION('',(-0.0,-1.0,-0.0));
#785=CARTESIAN_POINT('',(-3.5,1.75,23.3));
#786=DIRECTION('',(-0.0,1.0,0.0));
#787=DIRECTION('',(1.0,0.0,0.0));
#788=DIRECTION('',(0.0,1.0,0.0));
#789=CARTESIAN_POINT('',(-3.5,0.0,23.3));
#790=DIRECTION('',(-0.0,1.0,0.0));
#791=DIRECTION('',(1.0,0.0,0.0));
#792=CARTESIAN_POINT('',(7.24999999999999,0.0,20.7172597488604));
#793=DIRECTION('',(-0.0,1.0,0.0));
#794=DIRECTION('',(1.0,0.0,0.0));
#795=DIRECTION('',(-0.0,-1.0,-0.0));
#796=CARTESIAN_POINT('',(7.24999999999999,1.75,20.7172597488604));
#797=DIRECTION('',(-0.0,1.0,0.0));
#798=DIRECTION('',(1.0,0.0,0.0));
#799=DIRECTION('',(-0.0,-1.0,-0.0));
#800=CARTESIAN_POINT('',(1.06733270791909,1.75,-1.17650934546025));
#801=DIRECTION('',(-0.0,1.0,0.0));
#802=DIRECTION('',(1.0,0.0,0.0));
#803=CARTESIAN_POINT('',(-1.06733270791907,1.75,-1.17650934546024));
#804=DIRECTION('',(-0.0,1.0,0.0));
#805=DIRECTION('',(1.0,0.0,0.0));
#806=CARTESIAN_POINT('',(-7.25,1.75,20.7172597488604));
#807=DIRECTION('',(-0.0,1.0,0.0));
#808=DIRECTION('',(1.0,0.0,0.0));
#809=DIRECTION('',(0.0,0.0,1.0));
#810=CARTESIAN_POINT('',(-4.75,1.75,24.5955280488141));
#811=DIRECTION('',(-0.0,1.0,0.0));
#812=DIRECTION('',(1.0,0.0,0.0));
#813=CARTESIAN_POINT('',(-2.02528965820292E-13,1.75,1.82839854367955E-12));
#814=DIRECTION('',(-0.0,1.0,0.0));
#815=DIRECTION('',(1.0,0.0,0.0));
#816=DIRECTION('',(0.0,0.0,-1.0));
#817=CARTESIAN_POINT('',(-1.74999999999999,1.75,19.4213156094019));
#818=DIRECTION('',(-0.0,1.0,0.0));
#819=DIRECTION('',(1.0,0.0,0.0));
#820=CARTESIAN_POINT('',(-3.29597460435593E-14,1.75,0.0));
#821=DIRECTION('',(-0.0,1.0,0.0));
#822=DIRECTION('',(1.0,0.0,0.0));
#823=CARTESIAN_POINT('',(1.74999999999999,1.75,19.4213156094019));
#824=DIRECTION('',(-0.0,1.0,0.0));
#825=DIRECTION('',(1.0,0.0,0.0));
#826=DIRECTION('',(0.0,0.0,1.0));
#827=CARTESIAN_POINT('',(8.52182907573606E-14,1.75,7.07767178198537E-13));
#828=DIRECTION('',(-0.0,1.0,0.0));
#829=DIRECTION('',(1.0,0.0,0.0));
#830=CARTESIAN_POINT('',(4.75,1.75,24.5955280488141));
#831=DIRECTION('',(-0.0,1.0,0.0));
#832=DIRECTION('',(1.0,0.0,0.0));
#833=DIRECTION('',(0.0,0.0,-1.0));
#834=CARTESIAN_POINT('',(-3.5,1.75,23.3));
#835=DIRECTION('',(-0.0,1.0,0.0));
#836=DIRECTION('',(1.0,0.0,0.0));
#837=CARTESIAN_POINT('',(-3.5,1.75,23.3));
#838=DIRECTION('',(-0.0,1.0,0.0));
#839=DIRECTION('',(1.0,0.0,0.0));
#840=CARTESIAN_POINT('',(3.5,1.75,23.3));
#841=DIRECTION('',(-0.0,1.0,0.0));
#842=DIRECTION('',(1.0,0.0,0.0));
#843=CARTESIAN_POINT('',(3.5,1.75,23.3));
#844=DIRECTION('',(-0.0,1.0,0.0));
#845=DIRECTION('',(1.0,0.0,0.0));
#846=CARTESIAN_POINT('',(-3.5,0.0,23.3));
#847=DIRECTION('',(-0.0,1.0,0.0));
#848=DIRECTION('',(1.0,0.0,0.0));
#849=CARTESIAN_POINT('',(-3.5,0.0,23.3));
#850=DIRECTION('',(-0.0,1.0,0.0));
#851=DIRECTION('',(1.0,0.0,0.0));
#852=CARTESIAN_POINT('',(1.06733270791909,0.0,-1.17650934546025));
#853=DIRECTION('',(-0.0,1.0,0.0));
#854=DIRECTION('',(1.0,0.0,0.0));
#855=CARTESIAN_POINT('',(-1.06733270791907,0.0,-1.17650934546024));
#856=DIRECTION('',(-0.0,1.0,0.0));
#857=DIRECTION('',(1.0,0.0,0.0));
#858=CARTESIAN_POINT('',(-7.25,0.0,20.7172597488604));
#859=DIRECTION('',(-0.0,1.0,0.0));
#860=DIRECTION('',(1.0,0.0,0.0));
#861=DIRECTION('',(-0.0,-1.0,-0.0));
#862=DIRECTION('',(0.0,0.0,1.0));
#863=DIRECTION('',(-0.0,-1.0,-0.0));
#864=CARTESIAN_POINT('',(-4.75,0.0,24.5955280488141));
#865=DIRECTION('',(-0.0,1.0,0.0));
#866=DIRECTION('',(1.0,0.0,0.0));
#867=DIRECTION('',(-0.0,-1.0,-0.0));
#868=CARTESIAN_POINT('',(-2.02528965820292E-13,0.0,1.82839854367955E-12));
#869=DIRECTION('',(-0.0,1.0,0.0));
#870=DIRECTION('',(1.0,0.0,0.0));
#871=DIRECTION('',(-0.0,-1.0,-0.0));
#872=DIRECTION('',(0.0,0.0,-1.0));
#873=DIRECTION('',(-0.0,-1.0,-0.0));
#874=CARTESIAN_POINT('',(-1.74999999999999,0.0,19.4213156094019));
#875=DIRECTION('',(-0.0,1.0,0.0));
#876=DIRECTION('',(1.0,0.0,0.0));
#877=CARTESIAN_POINT('',(3.29597460435593E-14,0.0,-1.73472347597681E-15));
#878=DIRECTION('',(-0.0,1.0,0.0));
#879=DIRECTION('',(1.0,0.0,0.0));
#880=DIRECTION('',(-0.0,-1.0,-0.0));
#881=CARTESIAN_POINT('',(1.74999999999999,0.0,19.4213156094019));
#882=DIRECTION('',(-0.0,1.0,0.0));
#883=DIRECTION('',(1.0,0.0,0.0));
#884=DIRECTION('',(-0.0,-1.0,-0.0));
#885=DIRECTION('',(0.0,0.0,1.0));
#886=DIRECTION('',(-0.0,-1.0,-0.0));
#887=CARTESIAN_POINT('',(8.52182907573606E-14,0.0,7.07767178198537E-13));
#888=DIRECTION('',(-0.0,1.0,0.0));
#889=DIRECTION('',(1.0,0.0,0.0));
#890=DIRECTION('',(-0.0,-1.0,-0.0));
#891=CARTESIAN_POINT('',(4.75,0.0,24.5955280488141));
#892=DIRECTION('',(-0.0,1.0,0.0));
#893=DIRECTION('',(1.0,0.0,0.0));
#894=DIRECTION('',(-0.0,-1.0,-0.0));
#895=DIRECTION('',(0.0,0.0,-1.0));
#896=CARTESIAN_POINT('',(3.5,0.0,23.3));
#897=DIRECTION('',(-0.0,1.0,0.0));
#898=DIRECTION('',(1.0,0.0,0.0));
#899=CARTESIAN_POINT('',(3.5,0.0,23.3));
#900=DIRECTION('',(-0.0,1.0,0.0));
#901=DIRECTION('',(1.0,0.0,0.0));
ENDSEC;
END-ISO-10303-21;
