ISO-10303-21;
HEADER;
FILE_DESCRIPTION (( 'STEP AP203' ),
    '1' );
FILE_NAME ('plain washer large_din.STEP',
    '2026-06-28T10:24:18',
    ( '' ),
    ( '' ),
    'SwSTEP 2.0',
    'SolidWorks 2025',
    '' );
FILE_SCHEMA (( 'CONFIG_CONTROL_DESIGN' ));
ENDSEC;

DATA;
#1 = LOCAL_TIME ( 12, 24, 18.00000000000000000, #13 ) ;
#2 = EDGE_LOOP ( 'NONE', ( #62, #216, #248, #99 ) ) ;
#3 = DIRECTION ( 'NONE',  ( -1.000000000000000000, 0.000000000000000000, -0.000000000000000000 ) ) ;
#4 = ORIENTED_EDGE ( 'NONE', *, *, #240, .F. ) ;
#5 = FACE_BOUND ( 'NONE', #21, .T. ) ;
#6 = PRODUCT_DEFINITION ( 'UNKNOWN', '', #7, #148 ) ;
#7 = PRODUCT_DEFINITION_FORMATION_WITH_SPECIFIED_SOURCE ( 'ANY', '', #175, .NOT_KNOWN. ) ;
#8 = CARTESIAN_POINT ( 'NONE',  ( -34.92499999999994742, 0.000000000000000000, 7.500000000000000000 ) ) ;
#9 = DIRECTION ( 'NONE',  ( 0.000000000000000000, 0.000000000000000000, 1.000000000000000000 ) ) ;
#10 = APPLICATION_PROTOCOL_DEFINITION ( 'international standard', 'config_control_design', 1994, #208 ) ;
#11 = PERSON_AND_ORGANIZATION ( #80, #229 ) ;
#12 = AXIS2_PLACEMENT_3D ( 'NONE', #162, #82, #237 ) ;
#13 = COORDINATED_UNIVERSAL_TIME_OFFSET ( 1, 0, .AHEAD. ) ;
#14 = DIRECTION ( 'NONE',  ( 0.000000000000000000, 0.000000000000000000, 1.000000000000000000 ) ) ;
#15 =( LENGTH_UNIT ( ) NAMED_UNIT ( * ) SI_UNIT ( .MILLI., .METRE. ) );
#16 = APPROVAL_PERSON_ORGANIZATION ( #126, #122, #89 ) ;
#17 = EDGE_CURVE ( 'NONE', #41, #96, #55, .T. ) ;
#18 = ORIENTED_EDGE ( 'NONE', *, *, #200, .F. ) ;
#19 = VERTEX_POINT ( 'NONE', #187 ) ;
#20 = AXIS2_PLACEMENT_3D ( 'NONE', #173, #113, #76 ) ;
#21 = EDGE_LOOP ( 'NONE', ( #116, #198 ) ) ;
#22 = VERTEX_POINT ( 'NONE', #68 ) ;
#23 = CARTESIAN_POINT ( 'NONE',  ( 0.000000000000000000, 0.000000000000000000, 0.000000000000000000 ) ) ;
#24 = ADVANCED_BREP_SHAPE_REPRESENTATION ( 'plain washer large_din', ( #39, #111 ), #28 ) ;
#25 = CC_DESIGN_PERSON_AND_ORGANIZATION_ASSIGNMENT ( #11, #130, ( #141 ) ) ;
#26 = DIRECTION ( 'NONE',  ( -1.000000000000000000, -0.000000000000000000, -0.000000000000000000 ) ) ;
#27 = ADVANCED_FACE ( 'NONE', ( #146 ), #164, .F. ) ;
#28 =( GEOMETRIC_REPRESENTATION_CONTEXT ( 3 ) GLOBAL_UNCERTAINTY_ASSIGNED_CONTEXT ( ( #87 ) ) GLOBAL_UNIT_ASSIGNED_CONTEXT ( ( #15, #95, #241 ) ) REPRESENTATION_CONTEXT ( 'NONE', 'WORKASPACE' ) );
#29 = CARTESIAN_POINT ( 'NONE',  ( -3.000000000000002665, 0.000000000000000000, 0.000000000000000000 ) ) ;
#30 = CC_DESIGN_SECURITY_CLASSIFICATION ( #141, ( #7 ) ) ;
#31 = LINE ( 'NONE', #147, #196 ) ;
#32 = APPROVAL_DATE_TIME ( #35, #122 ) ;
#33 = PERSON_AND_ORGANIZATION ( #80, #229 ) ;
#34 = CIRCLE ( 'NONE', #12, 22.00000000000000000 ) ;
#35 = DATE_AND_TIME ( #153, #246 ) ;
#36 = DIRECTION ( 'NONE',  ( 0.000000000000000000, 0.000000000000000000, 1.000000000000000000 ) ) ;
#37 = CALENDAR_DATE ( 2026, 28, 6 ) ;
#38 = DIRECTION ( 'NONE',  ( -1.000000000000000000, -0.000000000000000000, -0.000000000000000000 ) ) ;
#39 = MANIFOLD_SOLID_BREP ( 'Base-Revolve', #98 ) ;
#40 = EDGE_CURVE ( 'NONE', #96, #22, #88, .T. ) ;
#41 = VERTEX_POINT ( 'NONE', #203 ) ;
#42 = VERTEX_POINT ( 'NONE', #220 ) ;
#43 = ORIENTED_EDGE ( 'NONE', *, *, #249, .T. ) ;
#44 = DIRECTION ( 'NONE',  ( -0.000000000000000000, 0.000000000000000000, 1.000000000000000000 ) ) ;
#45 = CC_DESIGN_PERSON_AND_ORGANIZATION_ASSIGNMENT ( #228, #167, ( #6 ) ) ;
#46 = DIRECTION ( 'NONE',  ( 0.000000000000000000, 0.000000000000000000, 1.000000000000000000 ) ) ;
#47 = EDGE_CURVE ( 'NONE', #19, #139, #121, .T. ) ;
#48 = AXIS2_PLACEMENT_3D ( 'NONE', #65, #212, #75 ) ;
#49 = DIRECTION ( 'NONE',  ( -1.000000000000000000, -0.000000000000000000, -0.000000000000000000 ) ) ;
#50 = CYLINDRICAL_SURFACE ( 'NONE', #106, 7.500000000000000000 ) ;
#51 = VECTOR ( 'NONE', #105, 1000.000000000000000 ) ;
#52 = CARTESIAN_POINT ( 'NONE',  ( 0.000000000000000000, 0.000000000000000000, 0.000000000000000000 ) ) ;
#53 = PERSON_AND_ORGANIZATION_ROLE ( 'design_owner' ) ;
#54 = DATE_TIME_ROLE ( 'classification_date' ) ;
#55 = CIRCLE ( 'NONE', #224, 7.500000000000000000 ) ;
#56 = APPROVAL_STATUS ( 'not_yet_approved' ) ;
#57 = DIRECTION ( 'NONE',  ( -1.000000000000000000, -0.000000000000000000, -0.000000000000000000 ) ) ;
#58 = FACE_OUTER_BOUND ( 'NONE', #2, .T. ) ;
#59 = EDGE_LOOP ( 'NONE', ( #81, #77 ) ) ;
#60 = LOCAL_TIME ( 12, 24, 18.00000000000000000, #92 ) ;
#61 = ORIENTED_EDGE ( 'NONE', *, *, #64, .T. ) ;
#62 = ORIENTED_EDGE ( 'NONE', *, *, #79, .F. ) ;
#63 = CARTESIAN_POINT ( 'NONE',  ( -3.000000000000002665, 9.184850993605147944E-16, -7.500000000000000000 ) ) ;
#64 = EDGE_CURVE ( 'NONE', #41, #178, #239, .T. ) ;
#65 = CARTESIAN_POINT ( 'NONE',  ( 0.000000000000000000, 0.000000000000000000, 0.000000000000000000 ) ) ;
#66 = SHAPE_DEFINITION_REPRESENTATION ( #177, #24 ) ;
#67 = LOCAL_TIME ( 12, 24, 18.00000000000000000, #206 ) ;
#68 = CARTESIAN_POINT ( 'NONE',  ( -3.000000000000002665, 0.000000000000000000, 7.500000000000000000 ) ) ;
#69 = CARTESIAN_POINT ( 'NONE',  ( -34.92499999999994742, 0.000000000000000000, 0.000000000000000000 ) ) ;
#70 = APPROVAL ( #210, 'UNSPECIFIED' ) ;
#71 = DIRECTION ( 'NONE',  ( 0.000000000000000000, 0.000000000000000000, 1.000000000000000000 ) ) ;
#72 = AXIS2_PLACEMENT_3D ( 'NONE', #112, #128, #36 ) ;
#73 = APPROVAL_STATUS ( 'not_yet_approved' ) ;
#74 = CC_DESIGN_PERSON_AND_ORGANIZATION_ASSIGNMENT ( #125, #53, ( #175 ) ) ;
#75 = DIRECTION ( 'NONE',  ( 0.000000000000000000, 0.000000000000000000, 1.000000000000000000 ) ) ;
#76 = DIRECTION ( 'NONE',  ( 0.000000000000000000, 0.000000000000000000, 1.000000000000000000 ) ) ;
#77 = ORIENTED_EDGE ( 'NONE', *, *, #17, .T. ) ;
#78 = FACE_OUTER_BOUND ( 'NONE', #160, .T. ) ;
#79 = EDGE_CURVE ( 'NONE', #42, #19, #31, .T. ) ;
#80 = PERSON ( 'UNSPECIFIED', 'UNSPECIFIED', 'UNSPECIFIED', ('UNSPECIFIED'), ('UNSPECIFIED'), ('UNSPECIFIED') ) ;
#81 = ORIENTED_EDGE ( 'NONE', *, *, #163, .T. ) ;
#82 = DIRECTION ( 'NONE',  ( -1.000000000000000000, -0.000000000000000000, -0.000000000000000000 ) ) ;
#83 = VECTOR ( 'NONE', #49, 1000.000000000000000 ) ;
#84 = CARTESIAN_POINT ( 'NONE',  ( -34.92499999999994742, 0.000000000000000000, 0.000000000000000000 ) ) ;
#85 = CC_DESIGN_APPROVAL ( #122, ( #6 ) ) ;
#86 = DIRECTION ( 'NONE',  ( 0.000000000000000000, 0.000000000000000000, 1.000000000000000000 ) ) ;
#87 = UNCERTAINTY_MEASURE_WITH_UNIT (LENGTH_MEASURE( 1.000000000000000082E-05 ), #15, 'distance_accuracy_value', 'NONE');
#88 = LINE ( 'NONE', #8, #51 ) ;
#89 = APPROVAL_ROLE ( '' ) ;
#90 = ADVANCED_FACE ( 'NONE', ( #107 ), #50, .F. ) ;
#91 = MECHANICAL_CONTEXT ( 'NONE', #208, 'mechanical' ) ;
#92 = COORDINATED_UNIVERSAL_TIME_OFFSET ( 1, 0, .AHEAD. ) ;
#93 = CALENDAR_DATE ( 2026, 28, 6 ) ;
#94 = CARTESIAN_POINT ( 'NONE',  ( -3.000000000000002665, 0.000000000000000000, 0.000000000000000000 ) ) ;
#95 =( NAMED_UNIT ( * ) PLANE_ANGLE_UNIT ( ) SI_UNIT ( $, .RADIAN. ) );
#96 = VERTEX_POINT ( 'NONE', #179 ) ;
#97 = ORIENTED_EDGE ( 'NONE', *, *, #183, .F. ) ;
#98 = CLOSED_SHELL ( 'NONE', ( #108, #90, #27, #135, #215, #144 ) ) ;
#99 = ORIENTED_EDGE ( 'NONE', *, *, #47, .F. ) ;
#100 = CARTESIAN_POINT ( 'NONE',  ( -34.92499999999994742, 0.000000000000000000, 0.000000000000000000 ) ) ;
#101 = EDGE_LOOP ( 'NONE', ( #194, #134, #233, #158 ) ) ;
#102 = CARTESIAN_POINT ( 'NONE',  ( 0.000000000000000000, 7.500000000000000000, 0.000000000000000000 ) ) ;
#103 = FACE_OUTER_BOUND ( 'NONE', #136, .T. ) ;
#104 = CIRCLE ( 'NONE', #20, 7.500000000000000000 ) ;
#105 = DIRECTION ( 'NONE',  ( -1.000000000000000000, -0.000000000000000000, -0.000000000000000000 ) ) ;
#106 = AXIS2_PLACEMENT_3D ( 'NONE', #84, #124, #9 ) ;
#107 = FACE_OUTER_BOUND ( 'NONE', #117, .T. ) ;
#108 = ADVANCED_FACE ( 'NONE', ( #103 ), #143, .T. ) ;
#109 = DATE_AND_TIME ( #93, #1 ) ;
#110 = DATE_TIME_ROLE ( 'creation_date' ) ;
#111 = AXIS2_PLACEMENT_3D ( 'NONE', #52, #71, #226 ) ;
#112 = CARTESIAN_POINT ( 'NONE',  ( 0.000000000000000000, 0.000000000000000000, 0.000000000000000000 ) ) ;
#113 = DIRECTION ( 'NONE',  ( -1.000000000000000000, -0.000000000000000000, -0.000000000000000000 ) ) ;
#114 = CC_DESIGN_PERSON_AND_ORGANIZATION_ASSIGNMENT ( #190, #243, ( #7 ) ) ;
#115 = ORIENTED_EDGE ( 'NONE', *, *, #17, .F. ) ;
#116 = ORIENTED_EDGE ( 'NONE', *, *, #223, .F. ) ;
#117 = EDGE_LOOP ( 'NONE', ( #115, #61, #43, #174 ) ) ;
#118 = CARTESIAN_POINT ( 'NONE',  ( 0.000000000000000000, 0.000000000000000000, 0.000000000000000000 ) ) ;
#119 = DIRECTION ( 'NONE',  ( -1.000000000000000000, -0.000000000000000000, -0.000000000000000000 ) ) ;
#120 = CARTESIAN_POINT ( 'NONE',  ( -3.000000000000001332, 22.00000000000000000, 0.000000000000000000 ) ) ;
#121 = CIRCLE ( 'NONE', #161, 22.00000000000000000 ) ;
#122 = APPROVAL ( #56, 'UNSPECIFIED' ) ;
#123 = DIRECTION ( 'NONE',  ( -1.000000000000000000, -0.000000000000000000, -0.000000000000000000 ) ) ;
#124 = DIRECTION ( 'NONE',  ( -1.000000000000000000, -0.000000000000000000, -0.000000000000000000 ) ) ;
#125 = PERSON_AND_ORGANIZATION ( #80, #229 ) ;
#126 = PERSON_AND_ORGANIZATION ( #80, #229 ) ;
#127 = APPROVAL_ROLE ( '' ) ;
#128 = DIRECTION ( 'NONE',  ( -1.000000000000000000, -0.000000000000000000, -0.000000000000000000 ) ) ;
#129 = AXIS2_PLACEMENT_3D ( 'NONE', #120, #199, #234 ) ;
#130 = PERSON_AND_ORGANIZATION_ROLE ( 'classification_officer' ) ;
#131 = DIRECTION ( 'NONE',  ( 0.000000000000000000, 0.000000000000000000, 1.000000000000000000 ) ) ;
#132 = PRODUCT_RELATED_PRODUCT_CATEGORY ( 'detail', '', ( #175 ) ) ;
#133 = CARTESIAN_POINT ( 'NONE',  ( -34.92499999999994742, 0.000000000000000000, 0.000000000000000000 ) ) ;
#134 = ORIENTED_EDGE ( 'NONE', *, *, #163, .F. ) ;
#135 = ADVANCED_FACE ( 'NONE', ( #218, #201 ), #142, .F. ) ;
#136 = EDGE_LOOP ( 'NONE', ( #232, #236, #97, #4 ) ) ;
#137 = CIRCLE ( 'NONE', #72, 22.00000000000000000 ) ;
#138 = APPLICATION_CONTEXT ( 'configuration controlled 3d designs of mechanical parts and assemblies' ) ;
#139 = VERTEX_POINT ( 'NONE', #182 ) ;
#140 = ORIENTED_EDGE ( 'NONE', *, *, #47, .T. ) ;
#141 = SECURITY_CLASSIFICATION ( '', '', #188 ) ;
#142 = PLANE ( 'NONE',  #169 ) ;
#143 = CYLINDRICAL_SURFACE ( 'NONE', #145, 22.00000000000000000 ) ;
#144 = ADVANCED_FACE ( 'NONE', ( #5, #78 ), #159, .F. ) ;
#145 = AXIS2_PLACEMENT_3D ( 'NONE', #100, #119, #46 ) ;
#146 = FACE_OUTER_BOUND ( 'NONE', #101, .T. ) ;
#147 = CARTESIAN_POINT ( 'NONE',  ( -34.92499999999994742, 2.694222958124176809E-15, -22.00000000000000000 ) ) ;
#148 = DESIGN_CONTEXT ( 'detailed design', #138, 'design' ) ;
#149 = COORDINATED_UNIVERSAL_TIME_OFFSET ( 1, 0, .AHEAD. ) ;
#150 = VECTOR ( 'NONE', #57, 1000.000000000000000 ) ;
#151 = APPROVAL_ROLE ( '' ) ;
#152 = DATE_AND_TIME ( #242, #67 ) ;
#153 = CALENDAR_DATE ( 2026, 28, 6 ) ;
#154 = LINE ( 'NONE', #230, #150 ) ;
#155 = CC_DESIGN_APPROVAL ( #70, ( #7 ) ) ;
#156 = ORIENTED_EDGE ( 'NONE', *, *, #183, .T. ) ;
#157 = CIRCLE ( 'NONE', #48, 22.00000000000000000 ) ;
#158 = ORIENTED_EDGE ( 'NONE', *, *, #223, .T. ) ;
#159 = PLANE ( 'NONE',  #129 ) ;
#160 = EDGE_LOOP ( 'NONE', ( #156, #140 ) ) ;
#161 = AXIS2_PLACEMENT_3D ( 'NONE', #29, #185, #166 ) ;
#162 = CARTESIAN_POINT ( 'NONE',  ( -3.000000000000002665, 0.000000000000000000, 0.000000000000000000 ) ) ;
#163 = EDGE_CURVE ( 'NONE', #96, #41, #202, .T. ) ;
#164 = CYLINDRICAL_SURFACE ( 'NONE', #165, 7.500000000000000000 ) ;
#165 = AXIS2_PLACEMENT_3D ( 'NONE', #69, #123, #86 ) ;
#166 = DIRECTION ( 'NONE',  ( 0.000000000000000000, 0.000000000000000000, 1.000000000000000000 ) ) ;
#167 = PERSON_AND_ORGANIZATION_ROLE ( 'creator' ) ;
#168 = PERSON_AND_ORGANIZATION ( #80, #229 ) ;
#169 = AXIS2_PLACEMENT_3D ( 'NONE', #102, #3, #44 ) ;
#170 = DATE_AND_TIME ( #37, #60 ) ;
#171 = APPROVAL_DATE_TIME ( #152, #70 ) ;
#172 = DIRECTION ( 'NONE',  ( -1.000000000000000000, -0.000000000000000000, -0.000000000000000000 ) ) ;
#173 = CARTESIAN_POINT ( 'NONE',  ( -3.000000000000002665, 0.000000000000000000, 0.000000000000000000 ) ) ;
#174 = ORIENTED_EDGE ( 'NONE', *, *, #40, .F. ) ;
#175 = PRODUCT ( 'plain washer large_din', 'plain washer large_din', '', ( #91 ) ) ;
#176 = APPROVAL_PERSON_ORGANIZATION ( #33, #70, #127 ) ;
#177 = PRODUCT_DEFINITION_SHAPE ( 'NONE', 'NONE',  #6 ) ;
#178 = VERTEX_POINT ( 'NONE', #63 ) ;
#179 = CARTESIAN_POINT ( 'NONE',  ( 0.000000000000000000, 0.000000000000000000, 7.500000000000000000 ) ) ;
#180 = APPROVAL ( #73, 'UNSPECIFIED' ) ;
#181 = DIRECTION ( 'NONE',  ( -1.000000000000000000, -0.000000000000000000, -0.000000000000000000 ) ) ;
#182 = CARTESIAN_POINT ( 'NONE',  ( -3.000000000000002665, 0.000000000000000000, 22.00000000000000000 ) ) ;
#183 = EDGE_CURVE ( 'NONE', #139, #19, #34, .T. ) ;
#184 = AXIS2_PLACEMENT_3D ( 'NONE', #23, #26, #219 ) ;
#185 = DIRECTION ( 'NONE',  ( -1.000000000000000000, -0.000000000000000000, -0.000000000000000000 ) ) ;
#186 = LOCAL_TIME ( 12, 24, 18.00000000000000000, #227 ) ;
#187 = CARTESIAN_POINT ( 'NONE',  ( -3.000000000000002665, 2.694222958124176809E-15, -22.00000000000000000 ) ) ;
#188 = SECURITY_CLASSIFICATION_LEVEL ( 'unclassified' ) ;
#189 = EDGE_CURVE ( 'NONE', #231, #42, #157, .T. ) ;
#190 = PERSON_AND_ORGANIZATION ( #80, #229 ) ;
#191 = CIRCLE ( 'NONE', #205, 7.500000000000000000 ) ;
#192 = CYLINDRICAL_SURFACE ( 'NONE', #214, 22.00000000000000000 ) ;
#193 = CC_DESIGN_APPROVAL ( #180, ( #141 ) ) ;
#194 = ORIENTED_EDGE ( 'NONE', *, *, #64, .F. ) ;
#195 = EDGE_LOOP ( 'NONE', ( #197, #18 ) ) ;
#196 = VECTOR ( 'NONE', #221, 1000.000000000000000 ) ;
#197 = ORIENTED_EDGE ( 'NONE', *, *, #189, .F. ) ;
#198 = ORIENTED_EDGE ( 'NONE', *, *, #249, .F. ) ;
#199 = DIRECTION ( 'NONE',  ( 1.000000000000000000, 0.000000000000000000, 0.000000000000000000 ) ) ;
#200 = EDGE_CURVE ( 'NONE', #42, #231, #137, .T. ) ;
#201 = FACE_BOUND ( 'NONE', #59, .T. ) ;
#202 = CIRCLE ( 'NONE', #184, 7.500000000000000000 ) ;
#203 = CARTESIAN_POINT ( 'NONE',  ( 0.000000000000000000, 9.184850993605147944E-16, -7.500000000000000000 ) ) ;
#204 = CARTESIAN_POINT ( 'NONE',  ( -34.92499999999994742, 9.184850993605147944E-16, -7.500000000000000000 ) ) ;
#205 = AXIS2_PLACEMENT_3D ( 'NONE', #94, #172, #131 ) ;
#206 = COORDINATED_UNIVERSAL_TIME_OFFSET ( 1, 0, .AHEAD. ) ;
#207 = CC_DESIGN_DATE_AND_TIME_ASSIGNMENT ( #109, #110, ( #6 ) ) ;
#208 = APPLICATION_CONTEXT ( 'configuration controlled 3d designs of mechanical parts and assemblies' ) ;
#209 = PERSON_AND_ORGANIZATION_ROLE ( 'creator' ) ;
#210 = APPROVAL_STATUS ( 'not_yet_approved' ) ;
#211 = APPLICATION_PROTOCOL_DEFINITION ( 'international standard', 'config_control_design', 1994, #138 ) ;
#212 = DIRECTION ( 'NONE',  ( -1.000000000000000000, -0.000000000000000000, -0.000000000000000000 ) ) ;
#213 = DATE_AND_TIME ( #244, #186 ) ;
#214 = AXIS2_PLACEMENT_3D ( 'NONE', #133, #38, #14 ) ;
#215 = ADVANCED_FACE ( 'NONE', ( #58 ), #192, .T. ) ;
#216 = ORIENTED_EDGE ( 'NONE', *, *, #200, .T. ) ;
#217 = APPROVAL_PERSON_ORGANIZATION ( #168, #180, #151 ) ;
#218 = FACE_OUTER_BOUND ( 'NONE', #195, .T. ) ;
#219 = DIRECTION ( 'NONE',  ( 0.000000000000000000, 0.000000000000000000, 1.000000000000000000 ) ) ;
#220 = CARTESIAN_POINT ( 'NONE',  ( 0.000000000000000000, 2.694222958124176809E-15, -22.00000000000000000 ) ) ;
#221 = DIRECTION ( 'NONE',  ( -1.000000000000000000, -0.000000000000000000, -0.000000000000000000 ) ) ;
#222 = CC_DESIGN_DATE_AND_TIME_ASSIGNMENT ( #213, #54, ( #141 ) ) ;
#223 = EDGE_CURVE ( 'NONE', #22, #178, #191, .T. ) ;
#224 = AXIS2_PLACEMENT_3D ( 'NONE', #118, #181, #238 ) ;
#225 = PERSON_AND_ORGANIZATION ( #80, #229 ) ;
#226 = DIRECTION ( 'NONE',  ( 1.000000000000000000, 0.000000000000000000, 0.000000000000000000 ) ) ;
#227 = COORDINATED_UNIVERSAL_TIME_OFFSET ( 1, 0, .AHEAD. ) ;
#228 = PERSON_AND_ORGANIZATION ( #80, #229 ) ;
#229 = ORGANIZATION ( 'UNSPECIFIED', 'UNSPECIFIED', '' ) ;
#230 = CARTESIAN_POINT ( 'NONE',  ( -34.92499999999994742, 0.000000000000000000, 22.00000000000000000 ) ) ;
#231 = VERTEX_POINT ( 'NONE', #245 ) ;
#232 = ORIENTED_EDGE ( 'NONE', *, *, #189, .T. ) ;
#233 = ORIENTED_EDGE ( 'NONE', *, *, #40, .T. ) ;
#234 = DIRECTION ( 'NONE',  ( 0.000000000000000000, 0.000000000000000000, -1.000000000000000000 ) ) ;
#235 = APPROVAL_DATE_TIME ( #170, #180 ) ;
#236 = ORIENTED_EDGE ( 'NONE', *, *, #79, .T. ) ;
#237 = DIRECTION ( 'NONE',  ( 0.000000000000000000, 0.000000000000000000, 1.000000000000000000 ) ) ;
#238 = DIRECTION ( 'NONE',  ( 0.000000000000000000, 0.000000000000000000, 1.000000000000000000 ) ) ;
#239 = LINE ( 'NONE', #204, #83 ) ;
#240 = EDGE_CURVE ( 'NONE', #231, #139, #154, .T. ) ;
#241 =( NAMED_UNIT ( * ) SI_UNIT ( $, .STERADIAN. ) SOLID_ANGLE_UNIT ( ) );
#242 = CALENDAR_DATE ( 2026, 28, 6 ) ;
#243 = PERSON_AND_ORGANIZATION_ROLE ( 'design_supplier' ) ;
#244 = CALENDAR_DATE ( 2026, 28, 6 ) ;
#245 = CARTESIAN_POINT ( 'NONE',  ( 0.000000000000000000, 0.000000000000000000, 22.00000000000000000 ) ) ;
#246 = LOCAL_TIME ( 12, 24, 18.00000000000000000, #149 ) ;
#247 = CC_DESIGN_PERSON_AND_ORGANIZATION_ASSIGNMENT ( #225, #209, ( #7 ) ) ;
#248 = ORIENTED_EDGE ( 'NONE', *, *, #240, .T. ) ;
#249 = EDGE_CURVE ( 'NONE', #178, #22, #104, .T. ) ;
ENDSEC;
END-ISO-10303-21;
